<svg xmlns="http://www.w3.org/2000/svg" width="244" height="244" viewBox="0 0 244 244">
    <defs>
        <clipPath id="clip-path">
            <path id="Rectangle_2909" d="M0 0H244V244H0z" class="cls-1" transform="translate(131.264 161.264)"/>
        </clipPath>
       
    </defs>
    <g id="Mask_Group_476" clip-path="url(#clip-path)" transform="translate(-131.264 -161.264)">
        <g id="Group_6337" transform="translate(159.103 165.556)">
            <g id="Group-2" transform="translate(0 185.633)">
                <path id="Path" d="M165.174 18.658H15.184a12.439 12.439 0 0 1-11.8-8.5L0 0h180.358l-3.383 10.153a12.439 12.439 0 0 1-11.8 8.5z" class="cls-3"/>
                <path id="Combined-Shape" fill="#c1c0c0" d="M24.048 0l3.383 10.153a12.439 12.439 0 0 0 11.8 8.5H15.184a12.439 12.439 0 0 1-11.8-8.5L0 0z"/>
                <path id="Path-2" d="M151.472 24.852H18.48a6.335 6.335 0 0 1-6.163-4.711l-1.971-7.727h149.261l-1.972 7.727a6.335 6.335 0 0 1-6.163 4.711z" class="cls-5" transform="translate(5.203 6.244)"/>
                <path id="Combined-Shape-2" fill="#a6a5a5" d="M22.369 12.414l1.972 7.727a6.335 6.335 0 0 0 6.159 4.711H18.48a6.335 6.335 0 0 1-6.163-4.711l-1.971-7.727z" transform="translate(5.203 6.244)"/>
            </g>
            <path id="Path-3" d="M6.219 0h167.92a6.219 6.219 0 0 1 6.219 6.219 6.219 6.219 0 0 1-6.219 6.219H6.219A6.219 6.219 0 0 1 0 6.219 6.219 6.219 0 0 1 6.219 0z" class="cls-5" transform="rotate(30 -123.864 77.351)"/>
            <path id="Path-4" d="M167.919 87.069H0V83.96a83.96 83.96 0 1 1 167.919 0z" class="cls-3" transform="rotate(30 35.5 132.49)"/>
            <path id="Combined-Shape-3" fill="#c9c9c9" d="M83.96 0a84.575 84.575 0 0 1 13.323 1.051 83.977 83.977 0 0 0-73.244 83.284v2.735H0v-3.11A83.959 83.959 0 0 1 83.96 0z" transform="rotate(30 35.5 132.49)"/>
            <path id="Path-5" d="M74.024 68.412a3.109 3.109 0 0 1-3.082-2.705A68.567 68.567 0 0 0 3.11 6.219 3.11 3.11 0 1 1 3.11 0a74.8 74.8 0 0 1 74.009 64.9 3.11 3.11 0 0 1-2.677 3.489 3.562 3.562 0 0 1-.417.025z" class="cls-1" transform="rotate(30 -22.33 278.695)"/>
            <path id="Path-6" d="M3.125 6.219A3.11 3.11 0 1 1 3.094 0h.031a3.11 3.11 0 0 1 0 6.219z" class="cls-1" transform="rotate(30 -16.133 255.573)"/>
            <path id="Path-7" d="M3.11 21.767A3.11 3.11 0 0 1 0 18.658V3.11a3.11 3.11 0 1 1 6.219 0v15.548a3.11 3.11 0 0 1-3.109 3.109z" class="cls-5" transform="rotate(30 29.892 292.689)"/>
            <path id="Path-8" d="M0 0h33.066v12.438H0z" class="cls-5" transform="rotate(30 54.012 272.306)"/>
            <path id="Polygon" fill="#d4d4d4" fill-rule="evenodd" d="M143.053 142l-62.374 45.841L17.393 142z" transform="translate(8.748 43.262)"/>
            <path id="Polygon-Copy" fill="#e4e3e3" fill-rule="evenodd" d="M143.053 142l-15.593 11.46H33.215L17.393 142z" transform="translate(8.748 43.262)"/>
            <path id="Combined-Shape-4" fill="#b5b5b5" fill-rule="evenodd" d="M106.3 114A23.3 23.3 0 1 1 83 137.3a23.3 23.3 0 0 1 23.3-23.3zm0 30.06a3.757 3.757 0 1 0 3.757 3.757 3.757 3.757 0 0 0-3.757-3.757zm0-21.042a3.757 3.757 0 0 0-3.757 3.757V137.3a3.757 3.757 0 0 0 7.515 0v-10.525a3.757 3.757 0 0 0-3.758-3.757z" transform="translate(-16.869 21.664)"/>
        </g>
    </g>
</svg>
